<svg width="14" height="16" viewBox="0 0 14 16" xmlns="http://www.w3.org/2000/svg">
<path d="M4.60806 9H3.36264C3.15714 9 2.98901 8.83125 2.98901 8.625V7.375C2.98901 7.16875 3.15714 7 3.36264 7H4.60806C4.81355 7 4.98169 7.16875 4.98169 7.375V8.625C4.98169 8.83125 4.81355 9 4.60806 9ZM7.9707 8.625V7.375C7.9707 7.16875 7.80256 7 7.59707 7H6.35165C6.14615 7 5.97802 7.16875 5.97802 7.375V8.625C5.97802 8.83125 6.14615 9 6.35165 9H7.59707C7.80256 9 7.9707 8.83125 7.9707 8.625ZM10.9597 8.625V7.375C10.9597 7.16875 10.7916 7 10.5861 7H9.34066C9.13517 7 8.96703 7.16875 8.96703 7.375V8.625C8.96703 8.83125 9.13517 9 9.34066 9H10.5861C10.7916 9 10.9597 8.83125 10.9597 8.625ZM7.9707 11.625V10.375C7.9707 10.1687 7.80256 10 7.59707 10H6.35165C6.14615 10 5.97802 10.1687 5.97802 10.375V11.625C5.97802 11.8313 6.14615 12 6.35165 12H7.59707C7.80256 12 7.9707 11.8313 7.9707 11.625ZM4.98169 11.625V10.375C4.98169 10.1687 4.81355 10 4.60806 10H3.36264C3.15714 10 2.98901 10.1687 2.98901 10.375V11.625C2.98901 11.8313 3.15714 12 3.36264 12H4.60806C4.81355 12 4.98169 11.8313 4.98169 11.625ZM10.9597 11.625V10.375C10.9597 10.1687 10.7916 10 10.5861 10H9.34066C9.13517 10 8.96703 10.1687 8.96703 10.375V11.625C8.96703 11.8313 9.13517 12 9.34066 12H10.5861C10.7916 12 10.9597 11.8313 10.9597 11.625ZM13.9487 3.5V14.5C13.9487 15.3281 13.2793 16 12.4542 16H1.49451C0.669414 16 0 15.3281 0 14.5V3.5C0 2.67188 0.669414 2 1.49451 2H2.98901V0.375C2.98901 0.16875 3.15714 0 3.36264 0H4.60806C4.81355 0 4.98169 0.16875 4.98169 0.375V2H8.96703V0.375C8.96703 0.16875 9.13517 0 9.34066 0H10.5861C10.7916 0 10.9597 0.16875 10.9597 0.375V2H12.4542C13.2793 2 13.9487 2.67188 13.9487 3.5ZM12.4542 14.3125V5H1.49451V14.3125C1.49451 14.4156 1.57857 14.5 1.68132 14.5H12.2674C12.3701 14.5 12.4542 14.4156 12.4542 14.3125Z"/>
</svg>
