<svg width="22" height="22" viewBox="0 0 22 22" xmlns="http://www.w3.org/2000/svg">
<path d="M11 0C4.92339 0 0 4.92339 0 11C0 17.0766 4.92339 22 11 22C17.0766 22 22 17.0766 22 11C22 4.92339 17.0766 0 11 0ZM15.1024 13.8831L14.2153 14.9919C14.1571 15.0647 14.0851 15.1253 14.0034 15.1703C13.9218 15.2153 13.8321 15.2437 13.7395 15.254C13.6468 15.2643 13.5531 15.2562 13.4636 15.2303C13.3741 15.2044 13.2905 15.161 13.2177 15.1028L10.246 12.8975C10.0383 12.7313 9.87072 12.5204 9.75555 12.2807C9.64039 12.0409 9.58061 11.7783 9.58064 11.5123V4.6129C9.58064 4.42469 9.65541 4.24418 9.7885 4.11109C9.92159 3.978 10.1021 3.90323 10.2903 3.90323H11.7097C11.8979 3.90323 12.0784 3.978 12.2115 4.11109C12.3446 4.24418 12.4194 4.42469 12.4194 4.6129V11L14.9919 12.8851C15.0647 12.9433 15.1254 13.0154 15.1703 13.0971C15.2153 13.1787 15.2437 13.2685 15.254 13.3612C15.2642 13.4539 15.2561 13.5477 15.2301 13.6372C15.2041 13.7268 15.1607 13.8103 15.1024 13.8831Z"/>
</svg>
